<?xml version="1.0" standalone="no"?>
<!DOCTYPE svg PUBLIC "-//W3C//DTD SVG 20010904//EN"
 "http://www.w3.org/TR/2001/REC-SVG-20010904/DTD/svg10.dtd">
<svg version="1.0" xmlns="http://www.w3.org/2000/svg"
 width="2482.000000pt" height="922.000000pt" viewBox="0 0 2482.000000 922.000000"
 preserveAspectRatio="xMidYMid meet">

<g transform="translate(0.000000,922.000000) scale(0.100000,-0.100000)"
fill="#000000" stroke="none">
<path d="M13624 7160 c-265 -69 -527 -319 -685 -656 -97 -205 -173 -479 -199
-719 -16 -150 -14 -443 5 -569 63 -423 255 -724 550 -861 108 -51 178 -70 305
-86 375 -45 788 113 975 375 89 125 156 312 139 390 -16 79 -81 136 -153 136
-84 0 -125 -42 -251 -261 -84 -146 -161 -226 -261 -274 -248 -117 -571 -75
-741 97 -148 151 -220 433 -204 798 25 541 158 907 427 1180 202 205 394 192
500 -35 64 -135 95 -338 86 -560 -8 -217 -33 -279 -156 -378 l-34 -28 18 -40
c38 -84 144 -150 217 -134 72 16 146 133 212 336 57 176 71 257 71 424 -1 226
-35 378 -123 550 -55 105 -165 224 -249 268 -122 65 -307 84 -449 47z"/>
<path d="M15112 7115 c-57 -25 -58 -36 -60 -505 -2 -234 -7 -797 -12 -1251
-11 -909 -12 -882 49 -967 36 -49 106 -92 161 -99 55 -8 121 19 164 68 43 47
44 57 15 264 -19 134 -21 182 -16 445 4 245 8 310 25 385 45 204 116 307 217
316 64 5 86 -2 126 -38 71 -64 113 -175 145 -383 13 -82 18 -209 21 -578 l5
-472 45 -40 c56 -49 101 -64 168 -57 54 5 122 34 144 60 9 12 11 145 8 604 -3
561 -5 592 -25 678 -32 134 -81 226 -166 310 -120 119 -311 200 -502 212 -83
5 -96 4 -147 -20 l-55 -25 -7 126 c-11 191 -1 346 33 512 56 268 54 299 -27
372 -71 64 -147 98 -218 98 -32 -1 -73 -7 -91 -15z"/>
<path d="M18195 7106 c-52 -23 -69 -51 -73 -121 l-4 -65 -69 -20 c-37 -11 -82
-32 -99 -46 -25 -22 -30 -33 -30 -72 0 -56 31 -122 73 -158 26 -22 38 -25 75
-21 40 4 44 2 54 -22 17 -42 2 -476 -26 -771 -45 -468 -59 -727 -53 -950 6
-224 16 -308 48 -415 35 -118 79 -159 183 -171 48 -6 63 -3 111 21 62 30 115
91 115 133 0 14 -16 54 -36 89 -30 55 -37 78 -46 165 -13 131 -6 604 10 640
15 37 41 48 146 64 133 20 560 19 660 -2 123 -25 176 6 192 114 6 42 4 46 -36
87 -59 60 -139 100 -240 121 -69 14 -118 16 -265 11 -99 -3 -226 -11 -283 -18
-144 -18 -137 -28 -135 209 1 159 7 226 40 447 l38 259 30 8 c114 30 518 120
600 134 74 12 137 15 245 11 81 -3 166 -1 193 5 87 18 131 90 107 177 -13 49
-63 92 -140 124 -49 19 -72 22 -220 21 -174 -1 -352 -20 -681 -75 l-177 -29
-81 55 c-109 73 -165 88 -226 61z"/>
<path d="M16702 6739 c-124 -24 -193 -133 -158 -251 21 -73 64 -121 143 -160
55 -27 77 -32 133 -32 58 0 75 4 116 29 155 96 108 341 -76 399 -65 21 -109
25 -158 15z"/>
<path d="M20502 6092 c-28 -11 -75 -38 -103 -62 l-50 -42 -27 25 c-40 37 -94
50 -181 45 -139 -8 -183 -52 -189 -187 -2 -47 6 -320 18 -606 20 -475 21 -603
4 -721 -14 -96 35 -174 124 -200 129 -38 270 16 288 111 4 22 -3 59 -22 116
-28 84 -28 84 -28 359 0 310 9 386 69 585 41 133 86 239 117 272 27 29 76 30
112 2 35 -27 45 -49 56 -116 10 -59 34 -94 82 -119 61 -32 129 -11 197 59 43
45 44 48 45 114 1 61 -3 75 -34 127 -59 98 -150 189 -222 221 -83 37 -181 44
-256 17z"/>
<path d="M16591 6077 c-13 -6 -28 -19 -32 -27 -16 -30 -34 -434 -33 -735 0
-301 23 -692 45 -793 28 -128 103 -192 234 -199 77 -5 118 12 150 61 15 23 15
31 -5 123 -20 95 -21 120 -17 608 3 486 5 514 25 590 12 44 25 118 28 165 6
78 4 87 -16 113 -29 36 -85 64 -177 88 -87 22 -167 24 -202 6z"/>
<path d="M21438 6067 c-37 -13 -70 -26 -72 -28 -3 -3 -15 -243 -27 -534 -24
-592 -22 -662 30 -812 73 -213 210 -347 406 -398 135 -35 318 -18 424 41 24
13 47 22 50 18 10 -10 4 -285 -8 -361 -18 -117 -47 -181 -106 -239 -101 -99
-265 -119 -441 -53 -30 11 -95 51 -146 88 -123 91 -146 102 -189 92 -105 -24
-146 -121 -94 -221 55 -105 287 -228 524 -276 116 -23 317 -16 416 16 202 64
322 188 381 395 16 53 18 142 24 800 6 625 9 756 23 840 38 223 78 451 83 467
7 24 -111 80 -181 86 -52 4 -171 -27 -234 -62 l-23 -13 -2 -409 c-2 -442 -5
-474 -63 -658 -67 -213 -151 -306 -278 -306 -118 0 -186 77 -221 250 -14 72
-16 129 -11 414 6 359 21 531 62 694 28 109 35 96 -74 150 -97 47 -160 52
-253 19z"/>
<path d="M13359 3166 c-190 -68 -321 -322 -322 -621 0 -134 16 -216 60 -297
36 -66 120 -142 180 -162 204 -70 445 27 500 200 20 66 11 104 -29 118 -35 12
-48 1 -113 -100 -64 -99 -107 -124 -212 -124 -189 1 -264 133 -242 425 10 127
46 243 100 324 127 191 249 167 280 -55 11 -77 5 -162 -13 -199 -5 -11 -21
-29 -35 -41 l-24 -21 26 -31 c52 -62 99 -32 142 89 21 59 27 93 27 169 1 105
-15 167 -63 242 -52 82 -166 118 -262 84z"/>
<path d="M14099 3156 c-20 -14 -48 -28 -62 -31 -35 -9 -50 -30 -50 -66 0 -34
16 -49 51 -49 20 0 23 -4 18 -27 -15 -74 -26 -163 -26 -214 0 -31 -3 -84 -6
-118 -7 -61 -7 -62 -50 -80 -87 -39 -78 -112 18 -136 24 -6 25 -10 32 -128 9
-156 18 -193 56 -212 40 -21 93 -19 113 3 22 24 21 33 -4 81 -15 29 -22 67
-26 136 l-6 95 49 0 c36 0 67 -9 118 -35 111 -57 272 -173 330 -236 54 -60 87
-74 114 -47 26 26 5 117 -39 172 -16 19 -87 72 -159 118 -71 46 -130 85 -130
88 0 3 32 23 71 45 95 53 164 129 185 202 21 72 15 173 -14 228 -21 41 -77 99
-124 128 -51 32 -173 66 -261 73 -60 5 -90 11 -94 20 -8 22 -65 16 -104 -10z
m310 -155 c113 -35 161 -91 161 -188 0 -92 -76 -190 -184 -238 -80 -35 -117
-40 -177 -20 l-52 17 5 92 c3 50 16 151 29 223 l24 133 67 0 c37 0 93 -8 127
-19z"/>
<path d="M20907 3166 c-190 -68 -317 -320 -317 -630 0 -124 15 -201 57 -284
34 -68 118 -145 180 -166 189 -65 410 11 487 167 33 65 34 120 4 141 -46 33
-60 22 -141 -104 -55 -85 -102 -110 -201 -110 -115 1 -173 36 -218 135 -21 46
-23 64 -23 210 1 178 13 241 67 353 42 84 123 168 172 178 74 13 122 -53 140
-193 13 -112 -1 -187 -44 -226 l-31 -28 30 -29 c64 -64 108 -25 152 137 40
146 9 314 -75 397 -62 62 -153 82 -239 52z"/>
<path d="M15455 3151 c-57 -26 -121 -95 -158 -171 -30 -60 -32 -72 -32 -165 0
-89 3 -105 27 -150 38 -72 115 -142 263 -238 192 -124 243 -192 178 -234 -21
-14 -47 -18 -123 -17 -116 1 -161 15 -224 70 -27 23 -59 45 -72 48 -55 14
-104 -37 -84 -89 14 -38 81 -80 177 -111 77 -25 103 -29 208 -29 118 0 122 1
190 35 78 39 115 83 115 136 0 85 -43 131 -255 274 -214 143 -258 195 -258
305 0 117 83 215 183 215 115 0 163 -104 136 -297 -8 -58 -7 -63 17 -87 52
-52 117 -22 133 63 8 37 -9 200 -27 263 -19 70 -69 130 -137 165 -56 29 -73
33 -140 33 -53 0 -89 -6 -117 -19z"/>
<path d="M16342 3154 c-23 -9 -67 -38 -97 -66 -54 -49 -55 -49 -55 -24 0 34
-24 82 -45 90 -27 10 -70 7 -88 -6 -15 -12 -18 -51 -24 -348 -5 -184 -8 -408
-8 -497 0 -148 2 -164 21 -189 39 -53 115 -52 150 1 16 24 15 28 -10 84 -20
44 -26 75 -26 126 0 36 3 65 8 63 106 -53 183 -72 276 -66 156 10 245 95 297
284 29 105 24 290 -10 376 -25 66 -87 134 -146 163 -53 26 -183 31 -243 9z
m184 -113 c45 -28 74 -80 91 -171 16 -77 15 -85 -5 -180 -25 -119 -55 -183
-106 -224 -36 -29 -43 -31 -125 -31 -78 0 -92 3 -128 27 -102 67 -111 243 -22
420 74 148 202 216 295 159z"/>
<path d="M18200 3143 c-67 -35 -142 -128 -165 -205 -8 -28 -15 -84 -15 -124 0
-155 58 -232 281 -379 146 -95 183 -126 205 -168 33 -62 -6 -91 -121 -91 -129
-1 -167 9 -230 60 -72 59 -107 71 -140 50 -35 -23 -42 -61 -18 -94 30 -41 78
-70 167 -99 70 -23 98 -27 206 -27 122 -1 127 0 192 32 98 48 134 109 108 187
-19 59 -63 100 -229 212 -86 58 -173 122 -194 142 -96 90 -111 212 -38 313 70
98 202 105 257 14 16 -26 19 -51 19 -169 0 -134 1 -139 24 -158 53 -43 114 -7
126 75 8 52 -17 238 -39 291 -20 46 -82 113 -130 138 -29 15 -65 22 -126 25
-79 4 -89 2 -140 -25z"/>
<path d="M21506 3151 c-32 -35 -39 -134 -39 -491 1 -473 18 -579 95 -611 25
-10 33 -9 56 8 30 23 31 34 8 118 -9 32 -16 86 -16 120 0 67 27 124 95 203
l38 43 40 -68 c135 -227 264 -337 397 -337 65 0 109 19 130 56 29 54 -23 83
-101 58 -21 -7 -49 -10 -63 -6 -90 22 -268 301 -270 422 -1 46 4 57 54 126 60
82 118 148 168 190 25 21 40 26 65 22 40 -6 60 7 60 38 0 34 -43 96 -71 103
-63 16 -195 -116 -432 -430 l-113 -149 7 164 c10 233 19 296 47 318 33 27 20
65 -34 97 -52 30 -97 32 -121 6z"/>
<path d="M16910 3140 c-47 -47 -13 -202 94 -424 50 -105 137 -236 157 -236 5
0 9 -8 9 -19 0 -29 -78 -232 -105 -273 -30 -45 -32 -91 -5 -118 21 -21 58 -34
87 -28 30 5 112 186 248 542 119 313 128 332 185 403 33 42 60 82 60 90 0 26
-47 63 -81 63 -64 0 -100 -57 -289 -454 l-42 -88 -28 27 c-37 36 -91 139 -124
237 -20 59 -26 97 -26 163 0 78 -2 88 -25 110 -31 32 -86 34 -115 5z"/>
<path d="M19409 3139 c-12 -12 -29 -40 -39 -63 -39 -87 -50 -186 -57 -491 -5
-261 -8 -295 -22 -295 -29 0 -72 85 -131 257 -61 174 -99 315 -116 428 -8 55
-21 110 -29 122 -31 46 -136 54 -186 14 -22 -18 -23 -24 -21 -142 2 -68 -4
-188 -13 -267 -9 -79 -17 -214 -18 -300 -2 -173 14 -250 60 -293 21 -21 25
-21 60 -8 21 8 43 26 50 39 10 21 9 30 -10 59 -18 30 -22 54 -25 160 -4 117
12 362 27 420 6 20 12 6 35 -75 111 -388 222 -584 334 -584 43 0 73 31 102
106 22 55 24 77 30 369 6 295 8 314 32 390 14 44 32 95 39 112 12 30 11 34 -6
48 -29 21 -72 18 -96 -6z"/>
<path d="M20048 3120 c-105 -87 -234 -380 -368 -835 -46 -157 -45 -173 15
-202 26 -13 42 -14 63 -7 26 9 27 14 34 93 4 47 13 90 20 97 14 14 182 32 350
36 l96 3 4 -78 c4 -90 16 -107 80 -107 28 0 46 7 63 25 29 28 30 34 10 82 -21
51 -19 70 10 77 26 7 39 37 33 77 -2 17 -13 27 -38 35 -34 11 -35 13 -42 80
-38 351 -93 541 -178 618 -53 47 -99 49 -152 6z m97 -164 c20 -29 59 -206 80
-356 8 -63 17 -127 20 -142 l5 -28 -103 0 c-56 0 -142 -7 -192 -15 -49 -8 -95
-15 -102 -15 -31 0 181 499 236 558 27 28 37 28 56 -2z"/>
<path d="M14965 3107 l-33 -33 -7 -189 c-12 -292 8 -672 37 -729 24 -46 40
-56 93 -56 73 0 80 13 47 80 -27 55 -27 55 -27 285 0 252 20 521 41 573 15 38
8 61 -28 86 -38 27 -86 20 -123 -17z"/>
</g>
</svg>
